# xmcd
#
# Track frame offsets:
#	150
#	17071
#	28665
#	41919
#	67234
#	86817
#	100508
#	120176
#	142705
#	161809
#	186914
#
# Disc length: 2736 seconds
#
# Revision: 1
# Processed by: cddbd v1.5.2PL0 Copyright (c) Steve Scherf et al.
# Submitted via: audiograbber 1.83.01
#
DISCID=8e0aae0b
DTITLE=Alastair Greene Band - Walking In Circles
DYEAR=2009
DGENRE=Blues
TTITLE0=Walking In Circles
TTITLE1=Look Out Baby
TTITLE2=Drunk Again
TTITLE3=Get Out of My Life
TTITLE4=Don't Lose Your Cool
TTITLE5=Say What You Want
TTITLE6=Pocket Full of Change
TTITLE7=Cut You Loose
TTITLE8=Back Alley Strut
TTITLE9=Merry-Go-Round
TTITLE10=Give Me Back My Wig
EXTD=
EXTT0=
EXTT1=
EXTT2=
EXTT3=
EXTT4=
EXTT5=
EXTT6=
EXTT7=
EXTT8=
EXTT9=
EXTT10=
PLAYORDER=
